<svg xmlns="http://www.w3.org/2000/svg" viewBox="0 0 48 48">
  <defs>
    <linearGradient id="ouro" x1="0" y1="0" x2="48" y2="48" gradientUnits="userSpaceOnUse">
      <stop stop-color="#7dffb2" />
      <stop offset="0.5" stop-color="#22e584" />
      <stop offset="1" stop-color="#c8ff4d" />
    </linearGradient>
    <radialGradient id="glow" cx="0.5" cy="0.5" r="0.5">
      <stop offset="0" stop-color="#22e584" stop-opacity="0.35" />
      <stop offset="1" stop-color="#22e584" stop-opacity="0" />
    </radialGradient>
  </defs>
  <rect width="48" height="48" rx="11" fill="#0b0f14" />
  <g transform="translate(24 24) scale(0.82) translate(-24 -24)">
    <circle cx="24" cy="24" r="16" fill="url(#glow)" />
    <path d="M24 6a18 18 0 1 1-12.7 5.3" stroke="url(#ouro)" stroke-width="4" stroke-linecap="round" fill="none" />
    <path d="M18.2 7.4 C 16.9 5.5, 13.4 5.0, 10.9 6.5 C 8.4 8.0, 7.4 11.0, 8.5 13.3 C 9.6 15.6, 12.6 16.4, 14.9 15.1 C 16.7 14.0, 17.9 11.3, 18.2 7.4 Z" fill="url(#ouro)" />
    <circle cx="12.1" cy="9.6" r="1.25" fill="#05070a" />
    <path d="M18 7.3 L20.2 6.4 M20.2 6.4 L21.6 5.5 M20.2 6.4 L21.8 6.8" stroke="url(#ouro)" stroke-width="1.1" stroke-linecap="round" fill="none" />
  </g>
</svg>
